<?xml version="1.0" encoding="utf-8"?>
<!-- Generator: Adobe Illustrator 27.5.0, SVG Export Plug-In . SVG Version: 6.00 Build 0)  -->
<svg version="1.1" xmlns="http://www.w3.org/2000/svg" xmlns:xlink="http://www.w3.org/1999/xlink" x="0px" y="0px"
     viewBox="0 0 2200 2200" style="enable-background:new 0 0 2200 2200;" xml:space="preserve">
<g id="background">
	<rect style="fill:transparent;" width="2200" height="2200"/>
</g>
    <g id="Objects">
	<g>
		<g>
			<path style="fill:#FFBB4D;" d="M1823.412,1351.37c14.57-12.786,36.169,3.725,27.579,21.103
				c-154.05,311.659-501.954,495.517-860,426.943c-430.115-82.388-712.016-497.85-629.639-927.976
				c68.574-358.045,367.968-613.385,714.493-641.374c19.322-1.561,26.684,24.611,9.419,33.425
				c-175.785,89.742-309.796,256.771-349.802,465.626c-68.824,359.331,166.684,706.429,526.015,775.243
				C1470.334,1544.367,1675.061,1481.561,1823.412,1351.37z"/>
            <path transform="scale(4.5) translate(110, 50)" style="fill:#1EA6C6;" d="M62.513,220.445c-0.009-0.525-0.02-1.049-0.02-1.575c0-50.155,40.659-90.814,90.814-90.814
		c43.222,0,79.388,30.196,88.562,70.643c8.555-4.789,18.409-7.531,28.91-7.531c32.766,0,59.328,26.562,59.328,59.328
		c0,1.339-0.06,2.664-0.148,3.981c24.325,9.03,41.661,32.444,41.661,59.911c0,35.286-28.605,63.892-63.892,63.892H79.865
		C35.757,378.279,0,342.522,0,298.414C0,260.266,26.749,228.369,62.513,220.445z"/>
		</g>
	</g>
</g>
</svg>
