<?xml version="1.0" encoding="iso-8859-1"?>
<svg version="1.1" id="Layer_1"
     xmlns="http://www.w3.org/2000/svg"
     xmlns:xlink="http://www.w3.org/1999/xlink"
     viewBox="0 0 376 550">

    <g>

        <path style="fill:#1F62C6;"
              d="M62.513,220.445c-0.009-0.525-0.02-1.049-0.02-1.575c0-50.155,40.659-90.814,90.814-90.814
        c43.222,0,79.388,30.196,88.562,70.643c8.555-4.789,18.409-7.531,28.91-7.531c32.766,0,59.328,26.562,59.328,59.328
        c0,1.339-0.06,2.664-0.148,3.981c24.325,9.03,41.661,32.444,41.661,59.911c0,35.286-28.605,63.892-63.892,63.892H79.865
        C35.757,378.279,0,342.522,0,298.414C0,260.266,26.749,228.369,62.513,220.445z"/>

        <g transform="translate(200, 400) scale(0.25)">
            <path style="fill:#98C8ED;"
                  d="M256,512c-29.229,0-57.067-5.947-82.373-16.699C68.517,450.643,32.298,319.574,97.79,226.014L256,0
            l158.21,226.014c65.491,93.56,29.274,224.629-75.837,269.286C313.067,506.053,285.229,512,256,512z"/>
        </g>

        <g transform="translate(50, 400) scale(0.25)">
            <path style="fill:#98C8ED;"
                  d="M256,512c-29.229,0-57.067-5.947-82.373-16.699C68.517,450.643,32.298,319.574,97.79,226.014L256,0
            l158.21,226.014c65.491,93.56,29.274,224.629-75.837,269.286C313.067,506.053,285.229,512,256,512z"/>
        </g>

    </g>
</svg>
